# xmcd
#
# Track frame offsets:
#	150
#	15873
#	26493
#	40465
#	55823
#	67552
#	83497
#	101014
#	112635
#
# Disc length: 1738 seconds
#
# Revision: 0
# Processed by: cddbd v1.4PL0 Copyright (c) Steve Scherf et al.
# Submitted via: dBpowerAMP V4.0
#
DISCID=5506c809
DTITLE=Kaci Lyn - A Thousand Stars
DYEAR=1998
DGENRE=Varies
TTITLE0=Does Anybody Care?
TTITLE1=Bayou Boogie
TTITLE2=A Thousand Stars
TTITLE3=Rhythm Of The River
TTITLE4=Fever In The Bayou
TTITLE5=Sing A Song Of Love
TTITLE6=Unchained Melody
TTITLE7=Cowboy Sweetheart
TTITLE8=I Believe In You And Me
EXTD=
EXTT0=
EXTT1=
EXTT2=
EXTT3=
EXTT4=
EXTT5=
EXTT6=
EXTT7=
EXTT8=
PLAYORDER=
